<svg width="34" height="36" viewBox="0 0 34 36" fill="none" xmlns="http://www.w3.org/2000/svg">
<path d="M9.01411 15.2929L3.77702 7.03822C7.03992 2.87572 11.9343 0.583533 16.9383 0.562439C19.8379 0.541345 22.7992 1.30072 25.4931 2.89681C28.4681 4.66869 30.7302 7.214 32.1698 10.139L18.0968 9.37962C14.1141 9.14056 10.3234 11.4398 9.01411 15.2929ZM11.2694 17.9999C11.2694 21.2484 13.8331 23.8781 17 23.8781C20.1669 23.8781 22.7306 21.2484 22.7306 17.9999C22.7306 14.7515 20.1669 12.1218 17 12.1218C13.8331 12.1218 11.2694 14.7445 11.2694 17.9999ZM32.8552 11.7281L23.279 12.2343C25.877 15.3492 25.9181 19.8421 23.7315 23.2874L16.0472 35.4093C19.2347 35.5851 22.5181 34.8679 25.4931 33.096C32.8552 28.7367 35.8371 19.596 32.8552 11.7281ZM9.16492 21.3468L2.76935 8.44447C1.02137 11.1867 0 14.4773 0 17.9999C0 26.7187 6.22419 33.9398 14.3609 35.2195L18.7274 26.4445C14.779 27.2038 10.9677 24.982 9.16492 21.3468Z" fill="white"/>
</svg>
